<?xml version="1.0" ?><svg viewBox="0 0 447.48 360.33" xmlns="http://www.w3.org/2000/svg"><title/><g data-name="Layer 2" id="Layer_2"><g data-name="giza, egypt, cairo, desert, egyptian, pyramid, tourism, architecture, landmark, travel" id="giza_egypt_cairo_desert_egyptian_pyramid_tourism_architecture_landmark_travel"><path d="M5.47,360.33H88.72a5.47,5.47,0,1,0,0-10.93H84.53l39.53-123.46,10.77,12.95a5.46,5.46,0,0,0,8.41-7L126.1,211.29c-.06-.07-.13-.12-.19-.18a6.33,6.33,0,0,0-.59-.57c-.11-.09-.23-.16-.35-.24a6,6,0,0,0-.6-.37l-.45-.2c-.12,0-.23-.11-.36-.15s-.17,0-.26-.06l-.48-.1a5.23,5.23,0,0,0-.68-.07l-.24,0-.21,0a5.51,5.51,0,0,0-.71.08,2.84,2.84,0,0,0-.42.08,5.78,5.78,0,0,0-.7.24l-.37.14a8.65,8.65,0,0,0-.76.47l-.19.12a5.17,5.17,0,0,0-.82.8l0,0L1.26,351.37a5.47,5.47,0,0,0,4.21,9Zm48.11-54.81H71.69a5.47,5.47,0,1,0,0-10.93h-9l45.43-54.66L81.18,324h-23a5.47,5.47,0,1,0,0,10.93H77.68L73.05,349.4H17.12Z"/><path d="M149.29,247.74a5.46,5.46,0,0,0-.71,7.7l5.19,6.25a5.47,5.47,0,0,0,8.41-7l-5.2-6.25A5.45,5.45,0,0,0,149.29,247.74Z"/><path d="M321.38,218.28a5.47,5.47,0,0,0,8.41-7l-1.18-1.41a5.46,5.46,0,1,0-8.4,7Z"/><path d="M446.22,351.37,346,230.76a5.47,5.47,0,0,0-8.41,7l47.24,56.84H362a5.47,5.47,0,1,0,0,10.93H393.9l36.46,43.88H221.83l18.78-58.66a5.38,5.38,0,0,0,.86-2.68l38.36-119.78,24.83,29.88a5.46,5.46,0,1,0,8.4-7l-31.2-37.54-.19-.19a5.12,5.12,0,0,0-.58-.56l-.36-.25a5.8,5.8,0,0,0-.59-.36,3.76,3.76,0,0,0-.46-.2c-.12,0-.23-.11-.35-.15l-.26-.06-.48-.1a5.4,5.4,0,0,0-.69-.08l-.24,0-.21,0a5.51,5.51,0,0,0-.71.08,3.1,3.1,0,0,0-.42.08,4,4,0,0,0-.69.24,2.35,2.35,0,0,0-.37.14,5.3,5.3,0,0,0-.76.46c-.06,0-.13.08-.2.13a5.16,5.16,0,0,0-.82.8l0,0L109.1,351.37a5.46,5.46,0,0,0,4.2,9H442a5.47,5.47,0,0,0,4.21-9ZM171.63,293.23h13.81a5.47,5.47,0,0,0,0-10.93h-4.72l17.33-20.84H226.3a5.47,5.47,0,0,0,0-10.93H207.13l19.17-23.07h12a5.47,5.47,0,0,0,0-10.93h-2.89l28.48-34.27-32,100H208.37a5.47,5.47,0,1,0,0,10.93h20l-6,18.82H171.12a5.47,5.47,0,1,0,0,10.93h47.69l-8.46,26.42H125Z"/><path d="M243.48,326a5.47,5.47,0,0,0,5.47,5.46h37.27a5.47,5.47,0,0,0,0-10.93H249A5.47,5.47,0,0,0,243.48,326Z"/><path d="M335,305.52h4.24a5.47,5.47,0,1,0,0-10.93H335a5.47,5.47,0,0,0,0,10.93Z"/><path d="M273.94,256.08a5.47,5.47,0,0,0,0-10.94h-3.81a5.47,5.47,0,0,0,0,10.94Z"/><path d="M291.21,250.61a5.46,5.46,0,0,0,5.46,5.47h22.16a5.47,5.47,0,0,0,0-10.94H296.67A5.46,5.46,0,0,0,291.21,250.61Z"/><path d="M184.83,31a48.6,48.6,0,1,0,34.06,15A48.22,48.22,0,0,0,184.83,31Zm25,75.82a37.68,37.68,0,1,1-26.08-64.9h.84a37.69,37.69,0,0,1,25.24,64.9Z"/><path d="M107.15,101.47a5.48,5.48,0,0,0,5.26,4,5.6,5.6,0,0,0,1.5-.21,5.47,5.47,0,0,0,3.76-6.75,69.87,69.87,0,0,1-1.8-8.21A5.46,5.46,0,1,0,105.07,92,81.58,81.58,0,0,0,107.15,101.47Z"/><path d="M238.85,137.16a79,79,0,0,0,19.32-29,5.46,5.46,0,1,0-10.21-3.9,68.78,68.78,0,0,1-105.63,30.25,5.46,5.46,0,1,0-6.6,8.71,79.27,79.27,0,0,0,103.12-6Z"/><path d="M250.69,63.9A5.45,5.45,0,0,0,256,68.12a5.38,5.38,0,0,0,1.25-.14,5.47,5.47,0,0,0,4.08-6.57,80.23,80.23,0,0,0-3.82-12,5.47,5.47,0,0,0-10.12,4.14A69.35,69.35,0,0,1,250.69,63.9Z"/><path d="M118.5,43.89a5.46,5.46,0,0,0,7.56-1.62,68.83,68.83,0,0,1,92.74-21.8,5.47,5.47,0,0,0,5.58-9.4,79.79,79.79,0,0,0-107.5,25.26A5.46,5.46,0,0,0,118.5,43.89Z"/></g></g></svg>